PathFileType	4	(X/Y/Z)	H:\MAC\Cortex8\Teaching\Biomec1_N_2\Trimmed_walk2.trc
DataRate	CameraRate	NumFrames	NumMarkers	Units	OrigDataRate	OrigDataStartFrame	OrigNumFrames
150.00	150.00	       7	28	mm	150.00	93	       184
Frame#	Time	R.ASIS			L.ASIS			R.PSIS			L.PSIS			L.Iliac.Crest			R.Iliac.Crest			R.GTR			R.Knee			R.HF			R.TT			R.Ankle			R.Heel			R.MT1			R.MT5			L.GTR			L.Knee			L.HF			L.TT			L.Ankle			L.Heel			L.MT1			L.MT5			R.Knee.Medial			R.Ankle.Medial			R.MT2			L.Knee.Medial			L.Ankle.Medial			L.MT2			V_Mid_ASIS			V_Mid_PSIS			V_Pelvis_Origin			V_R.Hip_JC			V_R.Knee_JC_Static			V_R.TT			V_R.Ankle_JC_Static			V_L.Hip_JC			V_Mid_Hip			V_R.MT2_Static			V_R.Knee.Medial			V_R.Ankle.Medial			V_R.TT			V_L.Knee_JC_Static			V_L.TT			V_L.Ankle_JC_Static			V_L.MT2_Static			V_R.Knee_JC			V_R.Ankle_JC			V_L.Knee_JC			V_L.Ankle_JC			V_R.TT_KJC_Static			V_L.TT_KJC_Static			V_R.TT_KJC			V_L.TT_KJC			V_R.MT2			V_L.MT2			
		X1	Y1	Z1	X2	Y2	Z2	X3	Y3	Z3	X4	Y4	Z4	X5	Y5	Z5	X6	Y6	Z6	X7	Y7	Z7	X8	Y8	Z8	X9	Y9	Z9	X10	Y10	Z10	X11	Y11	Z11	X12	Y12	Z12	X13	Y13	Z13	X14	Y14	Z14	X15	Y15	Z15	X16	Y16	Z16	X17	Y17	Z17	X18	Y18	Z18	X19	Y19	Z19	X20	Y20	Z20	X21	Y21	Z21	X22	Y22	Z22	X23	Y23	Z23	X24	Y24	Z24	X25	Y25	Z25	X26	Y26	Z26	X27	Y27	Z27	X28	Y28	Z28	

93.0	0.613	-338.02927	975.16418	-1228.13843	-587.0061	946.71307	-1194.51331	-374.06027	968.73145	-1014.75122	-450.70181	963.5614	-999.29321	-616.58582	1008.88464	-1101.74231	-283.50073	1018.17297	-1152.76843	-254.69078	897.84442	-1189.37476	-299.89014	496.78943	-1306.68921	-304.54367	437.07025	-1332.49316	-365.35437	441.08563	-1383.15247	-337.14423	79.74329	-1367.52197	-393.71719	50.82068	-1305.19946	-388.49094	60.30595	-1532.60742	-305.09644	54.88528	-1498.24268	-659.33289	856.58594	-1084.22791	-609.62421	498.50156	-946.68414	-612.58459	438.20633	-922.0871	-564.81531	392.97516	-972.14026	-563.02332	157.55757	-679.87323	-505.90341	172.69954	-615.91821	-490.15094	45.71718	-790.17767	-578.19153	46.71353	-760.67957	-436.91272	489.05228	-1310.24011	-424.40939	97.2539	-1400.95093	-352.52145	70.98981	-1524.28186	-474.36816	470.79202	-967.8515	-481.70612	157.27893	-727.24091	-526.11414	53.33247	-781.16199
94.0	0.62	-336.21729	977.40997	-1237.47388	-584.99359	947.18768	-1204.2948	-373.29507	969.87146	-1024.15198	-449.95752	964.11053	-1008.77997	-615.03644	1009.52814	-1112.30859	-282.43658	1020.64667	-1161.57874	-253.3445	899.84149	-1198.33142	-299.68253	497.08875	-1314.96301	-304.59644	437.1955	-1339.53455	-365.36627	440.59558	-1389.60913	-337.67316	80.01051	-1368.82458	-393.98526	50.97687	-1305.84741	-389.26379	56.25946	-1531.13989	-305.81653	53.89545	-1499.3053	-658.01611	856.43005	-1095.47058	-609.75201	497.74091	-960.68365	-613.44983	438.22757	-935.10974	-566.46405	391.69659	-984.55725	-564.24823	162.27617	-687.31506	-507.15744	180.82336	-624.49603	-490.42554	45.82819	-791.72137	-578.66876	47.19457	-762.58917	-436.10608	489.38647	-1319.38171	-425.19876	96.39832	-1402.10693	-352.8075	67.99385	-1525.34692	-475.26477	469.18921	-981.79449	-483.42108	160.52429	-734.86884	-526.44733	53.5399	-783.14996
95.0	0.627	-334.35577	979.60297	-1246.75464	-582.91846	947.70673	-1213.98328	-372.44888	970.97455	-1033.43823	-449.10919	964.70563	-1018.12073	-613.68805	1010.32007	-1122.57776	-281.69064	1022.70721	-1169.64233	-251.97781	901.59644	-1207.3186	-299.41699	497.19656	-1321.73315	-304.71707	437.08405	-1345.86816	-365.39481	440.07709	-1395.70776	-338.25174	80.30862	-1369.94177	-394.2417	51.73874	-1306.11865	-390.21237	53.85707	-1531.8855	-306.68018	53.32016	-1500.12622	-656.52588	856.23627	-1106.56067	-609.99768	496.69302	-975.12018	-614.43085	438.00281	-948.64868	-568.13611	390.11981	-997.51489	-565.61926	167.31398	-695.2597	-508.64896	189.33284	-633.46295	-490.79465	46.49084	-793.30835	-579.19958	48.03313	-764.86993	-435.58084	488.58847	-1326.50659	-426.04742	95.59357	-1402.95203	-353.89331	66.12708	-1526.57568	-476.3089	467.16183	-996.49274	-484.86127	163.94044	-742.85809	-526.73499	54.20734	-785.34235
96.0	0.633	-332.66122	981.90039	-1255.75757	-580.80688	948.26587	-1223.4198	-371.49658	971.9812	-1042.51611	-448.16336	965.30054	-1027.19238	-612.11578	1011.10883	-1132.58374	-279.87991	1024.65613	-1178.61133	-250.67714	903.31946	-1216.15356	-299.07053	497.12665	-1327.11963	-304.68408	436.81134	-1351.63293	-365.58585	439.52298	-1401.28638	-338.76453	80.51551	-1370.79272	-394.3576	51.94167	-1306.46582	-391.12491	52.14439	-1532.60449	-307.39774	52.96062	-1500.83472	-654.89484	856.00684	-1117.51404	-610.2511	495.36749	-989.97388	-615.56335	437.84393	-962.453	-569.52777	388.30042	-1010.93835	-566.80334	172.89583	-703.70361	-510.14868	198.09102	-643.00323	-491.23401	47.57304	-795.43988	-579.76776	49.5671	-767.46844	-435.28067	487.63043	-1331.6947	-426.74197	94.95182	-1403.58105	-354.63489	64.77904	-1527.58179	-477.54245	464.74277	-1011.83087	-485.9639	167.74097	-750.81348	-527.24847	55.53696	-787.79449
97.0	0.64	-330.88242	983.78656	-1264.58704	-578.71594	948.86145	-1232.60547	-370.3623	973.05206	-1051.27466	-447.00824	965.88916	-1036.18872	-610.48157	1012.09442	-1142.28064	-278.5036	1026.17102	-1187.44556	-249.366	904.69275	-1224.9259	-298.63919	496.8092	-1331.61963	-304.51596	436.48135	-1356.91882	-365.92969	438.95364	-1406.42212	-339.18515	80.64128	-1371.3479	-394.44534	52.06271	-1306.70276	-391.53149	51.16821	-1533.18237	-307.7356	52.66601	-1501.24792	-653.0675	855.7395	-1128.27795	-610.60339	493.8345	-1005.2077	-616.45538	437.15897	-977.12231	-570.94031	386.66895	-1024.74951	-567.99078	178.6778	-712.38812	-511.52805	207.24365	-653.11151	-491.69153	49.28392	-797.84729	-580.38367	51.9714	-770.42206	-435.2179	486.87833	-1335.45898	-427.22717	94.52396	-1404.14185	-354.90924	63.92805	-1528.34326	-479.08374	462.16138	-1027.77502	-486.85913	171.9003	-759.2121	-527.69763	57.45186	-790.86328
98.0	0.647	-329.14999	985.46539	-1273.37341	-576.75897	949.5567	-1241.47888	-368.90649	973.90656	-1060.03357	-445.677	966.50543	-1044.78906	-608.79749	1013.13379	-1151.45117	-277.30447	1027.28137	-1195.70264	-247.99196	905.8194	-1233.50098	-298.15836	496.28702	-1335.69177	-304.24341	436.14786	-1361.79944	-366.36194	438.35376	-1411.08557	-339.5368	80.67756	-1371.67712	-394.46091	52.13569	-1306.82971	-391.51871	50.68463	-1533.53931	-307.87891	52.39655	-1501.51453	-651.18146	855.46613	-1138.52527	-611.25116	492.08276	-1020.68231	-617.3974	436.18448	-992.26385	-572.10016	385.00003	-1038.90149	-569.02472	185.09253	-721.51129	-512.80432	216.83896	-663.68134	-492.11407	51.55959	-800.82452	-580.95807	55.141	-773.81226	-435.06863	486.40616	-1338.07129	-427.48483	94.23655	-1404.5752	-354.96936	63.31542	-1528.86108	-480.45059	459.21265	-1044.19421	-487.70071	176.70218	-767.77216	-528.22974	60.08191	-794.48254
99.0	0.653	-327.55627	987.01917	-1281.85779	-574.96655	950.26508	-1250.08142	-367.43436	974.84296	-1068.56287	-444.11877	966.40717	-1054.94189	-607.09399	1014.09833	-1160.28955	-275.93356	1028.36365	-1204.20874	-247.04533	906.61047	-1241.60583	-297.61911	495.79181	-1339.73096	-303.8566	435.96036	-1366.30139	-366.91443	437.86237	-1415.31396	-339.84995	80.62355	-1371.97729	-394.42807	52.17767	-1306.89771	-391.46811	50.45613	-1533.62085	-308.01556	52.186	-1501.67029	-649.11206	855.14923	-1148.5957	-612.06226	490.21732	-1036.37219	-618.29065	434.94553	-1007.86169	-572.85388	383.42154	-1053.48853	-569.92639	191.90857	-731.19812	-513.86719	226.61287	-674.95349	-492.49008	54.39141	-804.50085	-581.43414	59.12188	-777.80103	-434.77444	486.19672	-1339.93201	-427.59906	94.07316	-1404.81726	-355.0235	62.85088	-1529.14063	-481.46704	456.4819	-1060.67346	-488.31262	181.83609	-777.01068	-528.92719	63.39867	-798.91473
